<?xml version="1.0" standalone="no"?>
<!DOCTYPE svg PUBLIC "-//W3C//DTD SVG 20010904//EN"
 "http://www.w3.org/TR/2001/REC-SVG-20010904/DTD/svg10.dtd">
<svg version="1.0" xmlns="http://www.w3.org/2000/svg"
 width="106.000000pt" height="100.000000pt" viewBox="0 0 106.000000 100.000000"
 preserveAspectRatio="xMidYMid meet">

<g transform="translate(0.000000,100.000000) scale(0.100000,-0.100000)"
fill="#000000" stroke="none">
<path d="M136 938 c3 -35 14 -74 23 -88 12 -17 15 -32 10 -45 -12 -31 -10 -80
3 -93 9 -9 8 -12 -8 -12 -18 -1 -18 -1 -2 -14 10 -7 21 -33 24 -60 6 -41 5
-46 -12 -46 -34 0 -119 -46 -147 -79 -35 -43 -34 -57 2 -30 34 25 51 19 51
-21 0 -23 4 -27 19 -23 25 6 58 -12 66 -36 5 -17 9 -18 36 -8 33 13 66 0 62
-24 -8 -49 -17 -79 -36 -116 -20 -38 -20 -46 -8 -93 7 -28 12 -52 10 -53 -36
-19 -44 -28 -44 -48 0 -24 1 -24 99 -23 88 0 101 3 116 21 12 15 21 18 31 12
8 -5 31 -9 52 -9 30 0 37 -3 35 -17 -4 -25 58 -39 119 -27 47 9 48 10 45 42
l-4 33 39 -8 c58 -12 157 -7 189 10 58 30 79 63 80 125 0 31 6 66 14 78 8 13
10 32 6 49 -7 26 -8 27 -21 9 -14 -18 -14 -17 -15 8 0 17 -10 34 -26 47 -36
28 -40 27 -40 -16 0 -20 -4 -38 -10 -40 -11 -4 -6 -84 7 -98 19 -19 10 -36
-16 -29 -19 5 -25 2 -25 -11 0 -14 -3 -15 -15 -5 -12 10 -18 10 -30 0 -12 -10
-15 -10 -15 4 0 9 -4 16 -10 16 -5 0 -7 -7 -4 -15 4 -8 1 -15 -5 -15 -11 0
-15 12 -12 42 1 10 -4 18 -13 18 -10 0 -13 -6 -10 -15 4 -8 2 -15 -4 -15 -5 0
-9 15 -8 33 1 26 -3 33 -20 35 -16 2 -20 8 -17 23 4 14 0 19 -16 19 -14 0 -19
5 -15 15 4 9 -3 16 -20 21 -14 3 -30 12 -37 20 -21 25 47 17 77 -10 l28 -23
21 24 c22 26 51 32 98 19 20 -6 27 -5 27 6 0 24 32 46 70 50 23 2 34 8 32 17
-5 23 9 51 24 51 8 0 28 -15 45 -32 35 -39 39 -19 6 34 -35 58 -99 100 -192
124 -64 18 -144 18 -150 2 -2 -7 -9 -33 -15 -57 -19 -72 -110 -148 -110 -91 0
11 7 23 15 26 19 8 65 84 65 107 0 9 18 26 39 37 47 23 58 38 37 46 -14 5 -13
9 4 31 23 30 18 43 -17 43 l-25 0 30 34 c26 30 62 120 62 155 0 28 -97 -4
-141 -46 -26 -24 -28 -24 -52 -8 -62 40 -220 36 -308 -8 -27 -13 -49 -21 -49
-17 0 11 -81 100 -91 100 -5 0 -6 -28 -3 -62z m424 -207 c22 -43 -1 -111 -38
-111 -13 0 -12 3 6 16 25 17 31 81 10 102 -9 9 -9 12 0 12 6 0 16 -9 22 -19z
m-346 -45 c-6 -16 -24 -23 -24 -8 0 10 22 33 27 28 2 -2 1 -11 -3 -20z m289 9
c1 -5 -6 -11 -15 -13 -11 -2 -18 3 -18 13 0 17 30 18 33 0z m-251 -30 c0 -5
-5 -11 -11 -13 -6 -2 -11 4 -11 13 0 9 5 15 11 13 6 -2 11 -8 11 -13z m658
-91 c34 -15 58 -32 55 -38 -3 -6 -8 -18 -11 -27 -5 -14 -13 -11 -56 17 -27 19
-57 34 -66 34 -9 0 4 -13 29 -28 24 -16 50 -36 57 -44 11 -14 10 -17 -10 -23
-13 -4 -30 -14 -39 -22 -15 -12 -19 -10 -37 19 -12 18 -33 45 -48 58 l-28 25
17 -25 c67 -97 70 -108 28 -102 -16 2 -38 -1 -50 -7 -19 -11 -21 -9 -22 16 -1
26 -2 26 -13 -8 -10 -34 -12 -36 -31 -23 -12 8 -36 16 -55 18 -19 3 -37 5 -39
5 -2 1 16 11 40 24 33 17 50 35 70 74 14 28 29 61 32 73 5 21 10 23 61 17 30
-3 82 -18 116 -33z m-673 -62 c17 -15 43 -43 56 -63 20 -29 22 -39 12 -52 -11
-15 -13 -13 -23 16 -10 27 -11 28 -8 6 3 -26 1 -26 -38 -21 -23 2 -42 6 -44 7
-2 2 4 18 13 37 l16 33 -20 -23 c-11 -12 -22 -28 -24 -35 -4 -8 -8 -9 -14 -1
-4 6 -19 17 -33 24 l-24 13 34 29 35 29 -30 -11 c-16 -6 -35 -16 -42 -22 -7
-6 -13 -8 -13 -5 0 3 -3 12 -6 21 -4 11 7 19 43 30 67 20 74 20 110 -12z m248
-69 c4 -21 9 -45 11 -54 5 -18 -31 -29 -92 -29 -33 0 -34 1 -34 43 0 55 8 65
55 70 22 2 43 4 47 5 4 1 10 -15 13 -35z m475 -110 c0 -18 4 -24 15 -19 18 7
20 -19 3 -31 -7 -4 -23 -6 -35 -4 -13 1 -23 -2 -23 -8 0 -6 -4 -11 -10 -11 -5
0 -9 16 -8 35 1 20 5 32 11 28 6 -3 7 -1 3 6 -4 6 -4 26 0 43 l6 32 19 -23
c11 -13 19 -34 19 -48z m-480 17 c-14 -4 -37 -11 -52 -14 -18 -4 -29 -16 -37
-38 -13 -36 -2 -55 36 -61 40 -6 37 -17 -5 -17 -54 0 -76 9 -62 25 8 9 6 14
-5 19 -9 3 -15 0 -15 -10 0 -8 -4 -13 -9 -10 -5 4 -11 0 -14 -6 -3 -9 -9 -7
-20 7 -15 18 -15 21 1 33 9 7 22 10 29 8 6 -3 14 0 17 7 3 9 7 8 15 -3 8 -11
9 -5 4 22 l-5 37 58 4 c33 2 66 4 74 4 8 1 4 -2 -10 -7z m170 0 c0 -5 -4 -10
-10 -10 -5 0 -10 5 -10 10 0 6 5 10 10 10 6 0 10 -4 10 -10z m35 -40 c-3 -5
-10 -10 -16 -10 -5 0 -9 5 -9 10 0 6 7 10 16 10 8 0 12 -4 9 -10z m-265 -20
c0 -5 7 -7 15 -4 8 4 15 1 15 -6 0 -10 3 -10 14 -1 18 15 30 -1 21 -30 -6 -19
-8 -20 -26 -3 -12 11 -19 13 -19 5 0 -7 -5 -9 -12 -4 -7 4 -17 8 -23 8 -9 0
-11 8 -6 35 1 13 21 13 21 0z m300 -20 c0 -5 -4 -10 -10 -10 -5 0 -10 5 -10
10 0 6 5 10 10 10 6 0 10 -4 10 -10z m-170 -20 c0 -9 -40 -30 -56 -30 -10 0
-3 29 9 33 22 9 47 7 47 -3z m-18 -75 c5 -41 -2 -45 -85 -45 -75 0 -86 7 -93
51 l-6 34 90 -3 90 -3 4 -34z m353 25 c3 -5 1 -10 -4 -10 -6 0 -11 5 -11 10 0
6 2 10 4 10 3 0 8 -4 11 -10z m-45 -10 c0 -5 -4 -10 -10 -10 -5 0 -10 5 -10
10 0 6 5 10 10 10 6 0 10 -4 10 -10z m-286 -85 c7 -18 -30 -45 -63 -45 -22 0
-111 44 -111 55 0 3 38 5 84 5 65 0 85 -3 90 -15z m-304 -37 c0 -6 7 -5 15 2
12 10 15 9 15 -6 0 -16 2 -17 10 -4 9 13 11 13 20 0 5 -8 10 -18 10 -23 0 -11
-64 -5 -72 8 -5 6 -8 6 -8 -2 0 -20 -20 -15 -20 5 0 14 -2 15 -10 2 -11 -17
-25 -7 -17 13 6 16 57 20 57 5z m303 -26 c-3 -12 -9 -22 -14 -22 -14 0 -11 38
4 43 16 6 17 5 10 -21z m75 -5 c-4 -27 -38 -36 -39 -10 -1 16 -2 17 -6 0 -6
-23 -23 -22 -23 1 0 25 5 29 41 30 26 1 30 -3 27 -21z m42 3 c0 -11 -7 -20
-15 -20 -15 0 -21 21 -8 33 12 13 23 7 23 -13z"/>
</g>
</svg>
